<?xml version="1.0" encoding="utf-8"?>
<!-- Generator: Adobe Illustrator 27.9.4, SVG Export Plug-In . SVG Version: 9.03 Build 54784)  -->
<svg version="1.1" id="Layer_1" xmlns="http://www.w3.org/2000/svg" xmlns:xlink="http://www.w3.org/1999/xlink" x="0px" y="0px"
	 viewBox="0 0 1386 332" style="enable-background:new 0 0 1386 332;" xml:space="preserve">
<style type="text/css">
	.st0{fill:#8468EA;}
	.st1{fill:url(#SVGID_1_);}
	.st2{fill:url(#SVGID_00000137812330179992275080000002816426617557094332_);}
	.st3{fill:url(#SVGID_00000175311065265006340120000007602190456815198128_);}
	.st4{fill:url(#SVGID_00000053519946013398153550000013454471431135106469_);}
	.st5{fill:url(#SVGID_00000026878841984886332750000012060817298509491112_);}
	.st6{fill:url(#SVGID_00000051356757933087281820000004531402113105718958_);}
	.st7{fill:url(#SVGID_00000047768684239251728100000002667900174922995844_);}
	.st8{fill:url(#SVGID_00000060005059500419614340000006535697341368761500_);}
	.st9{fill:url(#SVGID_00000080908176775263773340000013547583033151894672_);}
	.st10{fill:url(#SVGID_00000126287059607727105430000011184049387649133737_);}
	.st11{fill:url(#SVGID_00000148647117140696560410000008697899089465273998_);}
</style>
<g>
	<path class="st0" d="M537.3,22.8h34.1c16.4,0,26,3.1,30.8,7.4c7.4,6.8,9.6,17,7.4,28.4c-1.5,8.1-5,14.2-8.7,18.8
		c-4.6,5.5-10.3,9-15.7,11.1l14.4,38.2H572l-17.9-50.2h4.4c6.8,0,12.7-0.7,16.6-2.8c3.7-2.2,7.2-7,8.3-12.9c1.1-5.5-0.9-9.8-3.9-12
		c-2.6-1.7-6.8-2.8-10.5-2.8h-9.8l-14.9,80.8h-26.6l19.2-104.2l0,0L537.3,22.8z"/>
	<path class="st0" d="M632.1,127.2h-28.8L663.7,23h22.9l20.7,104.2h-29l-2.2-15.1h-36.5L632.1,127.2
		C632.1,127.2,632.1,127.2,632.1,127.2z M668.1,54.7l-17.9,36.3h22.9L668.1,54.7C668.1,54.7,668.1,54.7,668.1,54.7z"/>
	<path class="st0" d="M738.9,22.8h26.6L746.3,127h-26.6L738.9,22.8C738.9,22.8,738.9,22.8,738.9,22.8z"/>
	<path class="st0" d="M892.8,22.8L888,48.6l-2.4,13.3l-4.8,25.8l-2.6,13.8l-4.8,25.8h85.2l4.8-25.6l0,0l2.6-13.8l4.8-25.8l2.4-13.3
		L978,23h-85.2V22.8z M944.1,61.9l-4.8,25.8l-2.6,13.8h-31.9l2.6-13.8l4.8-25.8l2.4-13.3h31.9L944.1,61.9L944.1,61.9z"/>
	<path class="st0" d="M836.9,86.4l11.1-63.6h25.6L854.4,127h-23.2l-28.2-62.9L791.9,127h-25.6l19.2-104.2h22.9L836.9,86.4
		C836.9,86.4,836.9,86.4,836.9,86.4z"/>
	<path class="st0" d="M436.4,22.8L432,48.6h88.9l4.4-25.8C525.3,22.8,436.4,22.8,436.4,22.8z M455.8,87.7l-2.6,13.8l-4.8,25.8H475
		l4.8-25.8l2.6-13.8l4.8-25.8h-26.6C460.6,61.9,455.8,87.7,455.8,87.7z"/>
	<path class="st0" d="M602.4,30.5c-5-4.6-14.6-7.4-30.8-7.4h-34.1l-19.2,104.2h26.6l4.6-24.2h14.6l8.7,24.2h27.5L585.8,89
		c5.5-2.2,11.1-5.7,15.7-11.1c3.7-4.6,7.2-10.9,8.7-18.8c2.2-11.4,0-21.6-7.4-28.4l0,0L602.4,30.5z M583.8,61.2
		c-1.1,5.7-4.6,10.7-8.3,12.9c-3.9,2.2-9.8,2.8-16.6,2.8h-5l5.7-30.6h9.8c3.7,0,7.6,1.1,10.5,2.8C582.9,51.4,584.9,55.8,583.8,61.2
		L583.8,61.2z"/>
	<path class="st0" d="M632.1,127.2h-28.8L663.7,23h22.9l20.7,104.2h-29l-2.2-15.1h-36.5C639.7,112.1,632.1,127.2,632.1,127.2z
		 M668.1,54.7l-17.9,36.3h22.9L668.1,54.7C668.1,54.7,668.1,54.7,668.1,54.7z"/>
	<path class="st0" d="M738.9,22.8h26.6L746.3,127h-26.6L738.9,22.8C738.9,22.8,738.9,22.8,738.9,22.8z"/>
	<path class="st0" d="M836.9,86.4l11.1-63.6h25.6L854.4,127h-23.2l-28.2-62.9L791.9,127h-25.6l19.2-104.2h22.9L836.9,86.4
		C836.9,86.4,836.9,86.4,836.9,86.4z"/>
</g>
<g>
	<linearGradient id="SVGID_1_" gradientUnits="userSpaceOnUse" x1="231.6632" y1="301.1915" x2="231.6632" y2="187.8608">
		<stop  offset="0" style="stop-color:#D40005"/>
		<stop  offset="1" style="stop-color:#231F20"/>
	</linearGradient>
	<path class="st1" d="M279.2,169.2c-7.4-3.9-16.5-5.9-27.3-5.9H189l-24.1,145.5h39.5l8-48H226l17.6,48h42.9l-20.6-54.3
		c8.2-3.6,15-8.8,20.4-15.4c5.8-7.1,9.6-15.9,11.3-26.3c1.7-10.3,0.9-19.2-2.3-26.6C291.9,178.7,286.6,173.1,279.2,169.2z
		 M223.4,194.8h13.9c4.5,0,8.4,0.6,11.4,1.9c3.1,1.3,5.3,3.2,6.6,5.8c1.3,2.6,1.7,6,1,10.2c-0.7,4.2-2.1,7.5-4.3,10
		c-2.2,2.5-5,4.4-8.5,5.5c-3.5,1.2-7.6,1.7-12.2,1.7h-13.8L223.4,194.8z"/>
	
		<linearGradient id="SVGID_00000092448402822113354540000011739637273804086178_" gradientUnits="userSpaceOnUse" x1="332.218" y1="301.1915" x2="332.218" y2="187.8608">
		<stop  offset="0" style="stop-color:#D40005"/>
		<stop  offset="1" style="stop-color:#231F20"/>
	</linearGradient>
	<polygon style="fill:url(#SVGID_00000092448402822113354540000011739637273804086178_);" points="324.5,163.3 300.4,308.7 
		339.9,308.7 364,163.3 	"/>
	
		<linearGradient id="SVGID_00000087390330844813259370000012041428715513763473_" gradientUnits="userSpaceOnUse" x1="428.8071" y1="301.1915" x2="428.8071" y2="187.8608">
		<stop  offset="0" style="stop-color:#D40005"/>
		<stop  offset="1" style="stop-color:#231F20"/>
	</linearGradient>
	<path style="fill:url(#SVGID_00000087390330844813259370000012041428715513763473_);" d="M426,163.3l-72.2,145.5h42.6l13.1-27.8h48
		l3.8,27.8h42.6l-23.9-145.5H426z M423.3,251.3l22.5-48h1.1l6.5,48H423.3z"/>
	
		<linearGradient id="SVGID_00000103261677191264539040000018288819788695288969_" gradientUnits="userSpaceOnUse" x1="579.9434" y1="301.1915" x2="579.9434" y2="187.8608">
		<stop  offset="0" style="stop-color:#D40005"/>
		<stop  offset="1" style="stop-color:#231F20"/>
	</linearGradient>
	<polygon style="fill:url(#SVGID_00000103261677191264539040000018288819788695288969_);" points="645.9,163.3 519.4,163.3 
		514,195.1 557.8,195.1 539,308.7 578,308.7 596.7,195.1 640.5,195.1 	"/>
	
		<linearGradient id="SVGID_00000031177986335011051240000017570670972516036744_" gradientUnits="userSpaceOnUse" x1="714.1733" y1="301.1915" x2="714.1733" y2="187.8608">
		<stop  offset="0" style="stop-color:#D40005"/>
		<stop  offset="1" style="stop-color:#231F20"/>
	</linearGradient>
	<polygon style="fill:url(#SVGID_00000031177986335011051240000017570670972516036744_);" points="752.4,163.3 743,220.1 
		690.7,220.1 700.1,163.3 660.6,163.3 636.5,308.7 676,308.7 685.3,251.9 737.6,251.9 728.2,308.7 767.7,308.7 791.9,163.3 	"/>
	
		<linearGradient id="SVGID_00000031202351245552021700000001999828598429544877_" gradientUnits="userSpaceOnUse" x1="856.6445" y1="301.1915" x2="856.6445" y2="187.8608">
		<stop  offset="0" style="stop-color:#D40005"/>
		<stop  offset="1" style="stop-color:#231F20"/>
	</linearGradient>
	<path style="fill:url(#SVGID_00000031202351245552021700000001999828598429544877_);" d="M853.8,163.3l-72.2,145.5h42.6l13.1-27.8
		h48l3.8,27.8h42.6l-23.9-145.5H853.8z M851.2,251.3l22.5-48h1.1l6.5,48H851.2z"/>
	
		<linearGradient id="SVGID_00000096737502173151677800000017449812568091548087_" gradientUnits="userSpaceOnUse" x1="997.4092" y1="301.1915" x2="997.4092" y2="187.8608">
		<stop  offset="0" style="stop-color:#D40005"/>
		<stop  offset="1" style="stop-color:#231F20"/>
	</linearGradient>
	<polygon style="fill:url(#SVGID_00000096737502173151677800000017449812568091548087_);" points="1009.2,163.3 969.7,163.3 
		945.6,308.7 1043.9,308.7 1049.3,276.9 990.4,276.9 	"/>
	
		<linearGradient id="SVGID_00000042724853882060474400000011987729936125152136_" gradientUnits="userSpaceOnUse" x1="1278.0771" y1="301.1915" x2="1278.0771" y2="187.8608">
		<stop  offset="0" style="stop-color:#D40005"/>
		<stop  offset="1" style="stop-color:#231F20"/>
	</linearGradient>
	<polygon style="fill:url(#SVGID_00000042724853882060474400000011987729936125152136_);" points="1313.6,163.3 1301.1,239.4 
		1300,239.4 1260.7,163.3 1227.2,163.3 1203.1,308.7 1242.6,308.7 1255.3,232.3 1256.2,232.3 1296,308.7 1328.9,308.7 1353.1,163.3 
			"/>
	
		<linearGradient id="SVGID_00000104673535679189991310000015138337300764874125_" gradientUnits="userSpaceOnUse" x1="1136.844" y1="301.1915" x2="1136.844" y2="187.8608">
		<stop  offset="0" style="stop-color:#D40005"/>
		<stop  offset="1" style="stop-color:#231F20"/>
	</linearGradient>
	<path style="fill:url(#SVGID_00000104673535679189991310000015138337300764874125_);" d="M1209.8,163.7H1091v-0.3l-6.7,36
		l-3.4,18.6l-6.7,36l-3.7,19.2l-6.7,36h118.8l6.7-35.6l3.7-19.2l6.7-36l3.4-18.6L1209.8,163.7z M1162.6,217.9l-6.7,36l-3.7,19.2
		h-44.5l3.7-19.2l6.7-36l3.4-18.6h44.5L1162.6,217.9z"/>
	
		<linearGradient id="SVGID_00000080194550481391849760000003477510436604455868_" gradientUnits="userSpaceOnUse" x1="107.5366" y1="301.1915" x2="107.5366" y2="187.8608">
		<stop  offset="0" style="stop-color:#D40005"/>
		<stop  offset="0.1985" style="stop-color:#B1060A"/>
		<stop  offset="1" style="stop-color:#231F20"/>
	</linearGradient>
	<polygon style="fill:url(#SVGID_00000080194550481391849760000003477510436604455868_);" points="172.6,163.4 48.6,163.4 
		42.5,199.3 166.5,199.3 	"/>
	
		<linearGradient id="SVGID_00000110451831963247549980000002227431653050434460_" gradientUnits="userSpaceOnUse" x1="92.454" y1="301.1915" x2="92.454" y2="187.8608">
		<stop  offset="0" style="stop-color:#D40005"/>
		<stop  offset="1" style="stop-color:#231F20"/>
	</linearGradient>
	<polygon style="fill:url(#SVGID_00000110451831963247549980000002227431653050434460_);" points="75.7,253.8 72,273 65.3,309 
		102.5,309 109.2,273 112.9,253.8 119.6,217.9 82.4,217.9 	"/>
</g>
</svg>
