<?xml version="1.0" encoding="utf-8"?>
<svg viewBox="0 0 1386 332" style="enable-background:new 0 0 1386 332;" xmlns="http://www.w3.org/2000/svg">
  <defs>
    <style type="text/css">
	.st0{fill:#8468EA;}
	.st1{fill:url(#SVGID_1_);}
	.st2{fill:url(#SVGID_00000137812330179992275080000002816426617557094332_);}
	.st3{fill:url(#SVGID_00000175311065265006340120000007602190456815198128_);}
	.st4{fill:url(#SVGID_00000053519946013398153550000013454471431135106469_);}
	.st5{fill:url(#SVGID_00000026878841984886332750000012060817298509491112_);}
	.st6{fill:url(#SVGID_00000051356757933087281820000004531402113105718958_);}
	.st7{fill:url(#SVGID_00000047768684239251728100000002667900174922995844_);}
	.st8{fill:url(#SVGID_00000060005059500419614340000006535697341368761500_);}
	.st9{fill:url(#SVGID_00000080908176775263773340000013547583033151894672_);}
	.st10{fill:url(#SVGID_00000126287059607727105430000011184049387649133737_);}
	.st11{fill:url(#SVGID_00000148647117140696560410000008697899089465273998_);}
</style>
  </defs>
  <g>
    <path class="st0" d="M537.3,22.8h34.1c16.4,0,26,3.1,30.8,7.4c7.4,6.8,9.6,17,7.4,28.4c-1.5,8.1-5,14.2-8.7,18.8&#10;&#9;&#9;c-4.6,5.5-10.3,9-15.7,11.1l14.4,38.2H572l-17.9-50.2h4.4c6.8,0,12.7-0.7,16.6-2.8c3.7-2.2,7.2-7,8.3-12.9c1.1-5.5-0.9-9.8-3.9-12&#10;&#9;&#9;c-2.6-1.7-6.8-2.8-10.5-2.8h-9.8l-14.9,80.8h-26.6l19.2-104.2l0,0L537.3,22.8z"/>
    <path class="st0" d="M632.1,127.2h-28.8L663.7,23h22.9l20.7,104.2h-29l-2.2-15.1h-36.5L632.1,127.2&#10;&#9;&#9;C632.1,127.2,632.1,127.2,632.1,127.2z M668.1,54.7l-17.9,36.3h22.9L668.1,54.7C668.1,54.7,668.1,54.7,668.1,54.7z"/>
    <path class="st0" d="M738.9,22.8h26.6L746.3,127h-26.6L738.9,22.8C738.9,22.8,738.9,22.8,738.9,22.8z"/>
    <path class="st0" d="M892.8,22.8L888,48.6l-2.4,13.3l-4.8,25.8l-2.6,13.8l-4.8,25.8h85.2l4.8-25.6l0,0l2.6-13.8l4.8-25.8l2.4-13.3&#10;&#9;&#9;L978,23h-85.2V22.8z M944.1,61.9l-4.8,25.8l-2.6,13.8h-31.9l2.6-13.8l4.8-25.8l2.4-13.3h31.9L944.1,61.9L944.1,61.9z"/>
    <path class="st0" d="M836.9,86.4l11.1-63.6h25.6L854.4,127h-23.2l-28.2-62.9L791.9,127h-25.6l19.2-104.2h22.9L836.9,86.4&#10;&#9;&#9;C836.9,86.4,836.9,86.4,836.9,86.4z"/>
    <path class="st0" d="M436.4,22.8L432,48.6h88.9l4.4-25.8C525.3,22.8,436.4,22.8,436.4,22.8z M455.8,87.7l-2.6,13.8l-4.8,25.8H475&#10;&#9;&#9;l4.8-25.8l2.6-13.8l4.8-25.8h-26.6C460.6,61.9,455.8,87.7,455.8,87.7z"/>
    <path class="st0" d="M602.4,30.5c-5-4.6-14.6-7.4-30.8-7.4h-34.1l-19.2,104.2h26.6l4.6-24.2h14.6l8.7,24.2h27.5L585.8,89&#10;&#9;&#9;c5.5-2.2,11.1-5.7,15.7-11.1c3.7-4.6,7.2-10.9,8.7-18.8c2.2-11.4,0-21.6-7.4-28.4l0,0L602.4,30.5z M583.8,61.2&#10;&#9;&#9;c-1.1,5.7-4.6,10.7-8.3,12.9c-3.9,2.2-9.8,2.8-16.6,2.8h-5l5.7-30.6h9.8c3.7,0,7.6,1.1,10.5,2.8C582.9,51.4,584.9,55.8,583.8,61.2&#10;&#9;&#9;L583.8,61.2z"/>
    <path class="st0" d="M632.1,127.2h-28.8L663.7,23h22.9l20.7,104.2h-29l-2.2-15.1h-36.5C639.7,112.1,632.1,127.2,632.1,127.2z&#10;&#9;&#9; M668.1,54.7l-17.9,36.3h22.9L668.1,54.7C668.1,54.7,668.1,54.7,668.1,54.7z"/>
    <path class="st0" d="M738.9,22.8h26.6L746.3,127h-26.6L738.9,22.8C738.9,22.8,738.9,22.8,738.9,22.8z"/>
    <path class="st0" d="M836.9,86.4l11.1-63.6h25.6L854.4,127h-23.2l-28.2-62.9L791.9,127h-25.6l19.2-104.2h22.9L836.9,86.4&#10;&#9;&#9;C836.9,86.4,836.9,86.4,836.9,86.4z"/>
  </g>
  <g>
    <linearGradient id="SVGID_1_" gradientUnits="userSpaceOnUse" x1="231.6632" y1="301.1915" x2="231.6632" y2="187.8608" gradientTransform="matrix(1, 0, 0, 1, 77.943207, 0)">
      <stop offset="0" style="stop-color:#D40005"/>
      <stop offset="1" style="stop-color:#231F20"/>
    </linearGradient>
    <path class="st1" d="M 357.143 169.2 C 349.743 165.3 340.643 163.3 329.843 163.3 L 266.943 163.3 L 242.843 308.8 L 282.343 308.8 L 290.343 260.8 L 303.943 260.8 L 321.543 308.8 L 364.443 308.8 L 343.843 254.5 C 352.043 250.9 358.843 245.7 364.243 239.1 C 370.043 232 373.843 223.2 375.543 212.8 C 377.243 202.5 376.443 193.6 373.243 186.2 C 369.843 178.7 364.543 173.1 357.143 169.2 Z M 301.343 194.8 L 315.243 194.8 C 319.743 194.8 323.643 195.4 326.643 196.7 C 329.743 198 331.943 199.9 333.243 202.5 C 334.543 205.1 334.943 208.5 334.243 212.7 C 333.543 216.9 332.143 220.2 329.943 222.7 C 327.743 225.2 324.943 227.1 321.443 228.2 C 317.943 229.4 313.843 229.9 309.243 229.9 L 295.443 229.9 L 301.343 194.8 Z"/>
    <linearGradient id="SVGID_00000092448402822113354540000011739637273804086178_" gradientUnits="userSpaceOnUse" x1="332.218" y1="301.1915" x2="332.218" y2="187.8608" gradientTransform="matrix(1, 0, 0, 1, 77.943207, 0)">
      <stop offset="0" style="stop-color:#D40005"/>
      <stop offset="1" style="stop-color:#231F20"/>
    </linearGradient>
    <polygon style="fill:url(#SVGID_00000092448402822113354540000011739637273804086178_);" points="402.443 163.3 378.343 308.7 417.843 308.7 441.943 163.3"/>
    <linearGradient id="SVGID_00000087390330844813259370000012041428715513763473_" gradientUnits="userSpaceOnUse" x1="428.8071" y1="301.1915" x2="428.8071" y2="187.8608" gradientTransform="matrix(1, 0, 0, 1, 77.943207, 0)">
      <stop offset="0" style="stop-color:#D40005"/>
      <stop offset="1" style="stop-color:#231F20"/>
    </linearGradient>
    <path style="fill:url(#SVGID_00000087390330844813259370000012041428715513763473_);" d="M 503.943 163.3 L 431.743 308.8 L 474.343 308.8 L 487.443 281 L 535.443 281 L 539.243 308.8 L 581.843 308.8 L 557.943 163.3 L 503.943 163.3 Z M 501.243 251.3 L 523.743 203.3 L 524.843 203.3 L 531.343 251.3 L 501.243 251.3 Z"/>
    <linearGradient id="SVGID_00000103261677191264539040000018288819788695288969_" gradientUnits="userSpaceOnUse" x1="579.9434" y1="301.1915" x2="579.9434" y2="187.8608" gradientTransform="matrix(1, 0, 0, 1, 77.943207, 0)">
      <stop offset="0" style="stop-color:#D40005"/>
      <stop offset="1" style="stop-color:#231F20"/>
    </linearGradient>
    <polygon style="fill:url(#SVGID_00000103261677191264539040000018288819788695288969_);" points="723.843 163.3 597.343 163.3 591.943 195.1 635.743 195.1 616.943 308.7 655.943 308.7 674.643 195.1 718.443 195.1"/>
    <linearGradient id="SVGID_00000031177986335011051240000017570670972516036744_" gradientUnits="userSpaceOnUse" x1="714.1733" y1="301.1915" x2="714.1733" y2="187.8608" gradientTransform="matrix(1, 0, 0, 1, 77.943207, 0)">
      <stop offset="0" style="stop-color:#D40005"/>
      <stop offset="1" style="stop-color:#231F20"/>
    </linearGradient>
    <polygon style="fill:url(#SVGID_00000031177986335011051240000017570670972516036744_);" points="830.343 163.3 820.943 220.1 768.643 220.1 778.043 163.3 738.543 163.3 714.443 308.7 753.943 308.7 763.243 251.9 815.543 251.9 806.143 308.7 845.643 308.7 869.843 163.3"/>
    <linearGradient id="SVGID_00000096737502173151677800000017449812568091548087_" gradientUnits="userSpaceOnUse" x1="997.4092" y1="301.1915" x2="997.4092" y2="187.8608" gradientTransform="matrix(1, 0, 0, 1, -80.258347, 0)">
      <stop offset="0" style="stop-color:#D40005"/>
      <stop offset="1" style="stop-color:#231F20"/>
    </linearGradient>
    <polygon style="fill:url(#SVGID_00000096737502173151677800000017449812568091548087_);" points="928.941 163.3 889.441 163.3 865.341 308.7 963.641 308.7 969.041 276.9 910.141 276.9"/>
    <linearGradient id="SVGID_00000042724853882060474400000011987729936125152136_" gradientUnits="userSpaceOnUse" x1="1278.0771" y1="301.1915" x2="1278.0771" y2="187.8608" gradientTransform="matrix(1, 0, 0, 1, -80.258347, 0)">
      <stop offset="0" style="stop-color:#D40005"/>
      <stop offset="1" style="stop-color:#231F20"/>
    </linearGradient>
    <polygon style="fill:url(#SVGID_00000042724853882060474400000011987729936125152136_);" points="1233.341 163.3 1220.841 239.4 1219.741 239.4 1180.441 163.3 1146.941 163.3 1122.841 308.7 1162.341 308.7 1175.041 232.3 1175.941 232.3 1215.741 308.7 1248.641 308.7 1272.841 163.3"/>
    <linearGradient id="SVGID_00000104673535679189991310000015138337300764874125_" gradientUnits="userSpaceOnUse" x1="1136.844" y1="301.1915" x2="1136.844" y2="187.8608" gradientTransform="matrix(1, 0, 0, 1, -80.258347, 0)">
      <stop offset="0" style="stop-color:#D40005"/>
      <stop offset="1" style="stop-color:#231F20"/>
    </linearGradient>
    <path style="fill:url(#SVGID_00000104673535679189991310000015138337300764874125_);" d="M 1129.541 163.7 L 1010.741 163.7 L 1010.741 163.4 L 1004.041 199.4 L 1000.641 218 L 993.941 254 L 990.241 273.2 L 983.541 309.2 L 1102.341 309.2 L 1109.041 273.6 L 1112.741 254.4 L 1119.441 218.4 L 1122.841 199.8 L 1129.541 163.7 Z M 1082.341 217.9 L 1075.641 253.9 L 1071.941 273.1 L 1027.441 273.1 L 1031.141 253.9 L 1037.841 217.9 L 1041.241 199.3 L 1085.741 199.3 L 1082.341 217.9 Z"/>
    <linearGradient id="SVGID_00000080194550481391849760000003477510436604455868_" gradientUnits="userSpaceOnUse" x1="107.5366" y1="301.1915" x2="107.5366" y2="187.8608" gradientTransform="matrix(1, 0, 0, 1, 77.943207, 0)">
      <stop offset="0" style="stop-color:#D40005"/>
      <stop offset="0.1985" style="stop-color:#B1060A"/>
      <stop offset="1" style="stop-color:#231F20"/>
    </linearGradient>
    <polygon style="fill:url(#SVGID_00000080194550481391849760000003477510436604455868_);" points="250.543 163.4 126.543 163.4 120.443 199.3 244.443 199.3"/>
    <linearGradient id="SVGID_00000110451831963247549980000002227431653050434460_" gradientUnits="userSpaceOnUse" x1="92.454" y1="301.1915" x2="92.454" y2="187.8608" gradientTransform="matrix(1, 0, 0, 1, 77.943207, 0)">
      <stop offset="0" style="stop-color:#D40005"/>
      <stop offset="1" style="stop-color:#231F20"/>
    </linearGradient>
    <polygon style="fill:url(#SVGID_00000110451831963247549980000002227431653050434460_);" points="153.643 253.8 149.943 273 143.243 309 180.443 309 187.143 273 190.843 253.8 197.543 217.9 160.343 217.9"/>
  </g>
</svg>