<?xml version="1.0" encoding="UTF-8"?>
<!DOCTYPE svg PUBLIC "-//W3C//DTD SVG 1.1//EN" "http://www.w3.org/Graphics/SVG/1.1/DTD/svg11.dtd">
<svg xmlns="http://www.w3.org/2000/svg" version="1.1" width="50px" height="50px" style="shape-rendering:geometricPrecision; text-rendering:geometricPrecision; image-rendering:optimizeQuality; fill-rule:evenodd; clip-rule:evenodd" xmlns:xlink="http://www.w3.org/1999/xlink">
<g><path style="opacity:0.705" fill="#000000" d="M 21.5,3.5 C 23.5,3.5 25.5,3.5 27.5,3.5C 27.5,9.5 27.5,15.5 27.5,21.5C 33.5,21.5 39.5,21.5 45.5,21.5C 45.5,23.5 45.5,25.5 45.5,27.5C 39.5,27.5 33.5,27.5 27.5,27.5C 27.5,33.5 27.5,39.5 27.5,45.5C 25.5,45.5 23.5,45.5 21.5,45.5C 21.5,39.5 21.5,33.5 21.5,27.5C 15.5,27.5 9.5,27.5 3.5,27.5C 3.5,25.5 3.5,23.5 3.5,21.5C 9.5,21.5 15.5,21.5 21.5,21.5C 21.5,15.5 21.5,9.5 21.5,3.5 Z"/></g>
</svg>
